<svg xmlns="http://www.w3.org/2000/svg" xml:space="preserve" width="192" height="192" data-version="2">
    <path fill="#1e1e76" d="M121.96 48.06q0 .38-.53 2.79-.52 2.4-1.09 4.85-.56 2.44-.79 2.97-.3 1.05-.82 1.84-.53.79-1.81.79-.83 0-1.8-.38-2.86-.98-5.76-1.62-2.89-.63-5.97-.63-3.76 0-7.49 1.05-3.72 1.05-6.2 3.61-2.48 2.55-2.48 7.07 0 5.64 2.86 9.28 2.85 3.65 7.33 6.24 4.47 2.6 9.51 5.12t9.51 5.94q4.48 3.42 7.33 8.61 2.86 5.19 2.86 13.31 0 11.13-5.26 17.74-5.27 6.62-13.84 9.55-8.57 2.94-18.42 2.94-2.93 0-6.96-.34-4.02-.34-7.97-1.06-3.94-.71-6.65-1.76-.9-.38-1.51-.91-.6-.52-.6-1.65 0-.45.6-2.97.61-2.52 1.28-5.08.68-2.55.83-3.15.38-1.06.86-1.73.49-.68 1.77-.68.75 0 1.43.23 3.69 1.05 7.48 1.8 3.8.75 7.63.75 4.74 0 9.14-1.31 4.4-1.32 7.22-4.48 2.82-3.16 2.82-8.64 0-6.25-2.93-10.04-2.94-3.8-7.52-6.4-4.59-2.59-9.74-4.96t-9.74-5.52q-4.58-3.16-7.52-8.2-2.93-5.04-2.93-13.09 0-10 4.74-16.12 4.73-6.13 12.48-8.99 7.74-2.86 16.62-2.86 4.43 0 10.22.83 5.79.83 9.85 2.63.91.38 1.43.94.53.57.53 1.69" paint-order="stroke"/>
    <rect width="61.21" height="107.16" x="-30.605" y="-53.58" fill="none" rx="0" ry="0" transform="translate(96.515 96.05)"/>
</svg>
